<svg id="visual" viewBox="0 0 800 800" width="800" height="800" xmlns="http://www.w3.org/2000/svg" xmlns:xlink="http://www.w3.org/1999/xlink" version="1.1"><path d="M0 97L16.7 135.7C33.3 174.3 66.7 251.7 100 278.3C133.3 305 166.7 281 200 270.3C233.3 259.7 266.7 262.3 300 254.3C333.3 246.3 366.7 227.7 400 218.3C433.3 209 466.7 209 500 203.7C533.3 198.3 566.7 187.7 600 206.3C633.3 225 666.7 273 700 265C733.3 257 766.7 193 783.3 161L800 129L800 0L783.3 0C766.7 0 733.3 0 700 0C666.7 0 633.3 0 600 0C566.7 0 533.3 0 500 0C466.7 0 433.3 0 400 0C366.7 0 333.3 0 300 0C266.7 0 233.3 0 200 0C166.7 0 133.3 0 100 0C66.7 0 33.3 0 16.7 0L0 0Z" fill="#83b2d4"></path><path d="M0 233L16.7 258.3C33.3 283.7 66.7 334.3 100 349C133.3 363.7 166.7 342.3 200 335.7C233.3 329 266.7 337 300 327.7C333.3 318.3 366.7 291.7 400 285C433.3 278.3 466.7 291.7 500 301C533.3 310.3 566.7 315.7 600 335.7C633.3 355.7 666.7 390.3 700 375.7C733.3 361 766.7 297 783.3 265L800 233L800 127L783.3 159C766.7 191 733.3 255 700 263C666.7 271 633.3 223 600 204.3C566.7 185.7 533.3 196.3 500 201.7C466.7 207 433.3 207 400 216.3C366.7 225.7 333.3 244.3 300 252.3C266.7 260.3 233.3 257.7 200 268.3C166.7 279 133.3 303 100 276.3C66.7 249.7 33.3 172.3 16.7 133.7L0 95Z" fill="#6ca5cd"></path><path d="M0 481L16.7 489C33.3 497 66.7 513 100 518.3C133.3 523.7 166.7 518.3 200 519.7C233.3 521 266.7 529 300 517C333.3 505 366.7 473 400 458.3C433.3 443.7 466.7 446.3 500 459.7C533.3 473 566.7 497 600 514.3C633.3 531.7 666.7 542.3 700 547.7C733.3 553 766.7 553 783.3 553L800 553L800 231L783.3 263C766.7 295 733.3 359 700 373.7C666.7 388.3 633.3 353.7 600 333.7C566.7 313.7 533.3 308.3 500 299C466.7 289.7 433.3 276.3 400 283C366.7 289.7 333.3 316.3 300 325.7C266.7 335 233.3 327 200 333.7C166.7 340.3 133.3 361.7 100 347C66.7 332.3 33.3 281.7 16.7 256.3L0 231Z" fill="#5498c6"></path><path d="M0 545L16.7 550.3C33.3 555.7 66.7 566.3 100 577C133.3 587.7 166.7 598.3 200 607.7C233.3 617 266.7 625 300 618.3C333.3 611.7 366.7 590.3 400 575.7C433.3 561 466.7 553 500 559.7C533.3 566.3 566.7 587.7 600 601C633.3 614.3 666.7 619.7 700 622.3C733.3 625 766.7 625 783.3 625L800 625L800 551L783.3 551C766.7 551 733.3 551 700 545.7C666.7 540.3 633.3 529.7 600 512.3C566.7 495 533.3 471 500 457.7C466.7 444.3 433.3 441.7 400 456.3C366.7 471 333.3 503 300 515C266.7 527 233.3 519 200 517.7C166.7 516.3 133.3 521.7 100 516.3C66.7 511 33.3 495 16.7 487L0 479Z" fill="#4289b8"></path><path d="M0 617L16.7 619.7C33.3 622.3 66.7 627.7 100 641C133.3 654.3 166.7 675.7 200 691.7C233.3 707.7 266.7 718.3 300 707.7C333.3 697 366.7 665 400 647.7C433.3 630.3 466.7 627.7 500 638.3C533.3 649 566.7 673 600 681C633.3 689 666.7 681 700 679.7C733.3 678.3 766.7 683.7 783.3 686.3L800 689L800 623L783.3 623C766.7 623 733.3 623 700 620.3C666.7 617.7 633.3 612.3 600 599C566.7 585.7 533.3 564.3 500 557.7C466.7 551 433.3 559 400 573.7C366.7 588.3 333.3 609.7 300 616.3C266.7 623 233.3 615 200 605.7C166.7 596.3 133.3 585.7 100 575C66.7 564.3 33.3 553.7 16.7 548.3L0 543Z" fill="#3b79a3"></path><path d="M0 801L16.7 801C33.3 801 66.7 801 100 801C133.3 801 166.7 801 200 801C233.3 801 266.7 801 300 801C333.3 801 366.7 801 400 801C433.3 801 466.7 801 500 801C533.3 801 566.7 801 600 801C633.3 801 666.7 801 700 801C733.3 801 766.7 801 783.3 801L800 801L800 687L783.3 684.3C766.7 681.7 733.3 676.3 700 677.7C666.7 679 633.3 687 600 679C566.7 671 533.3 647 500 636.3C466.7 625.7 433.3 628.3 400 645.7C366.7 663 333.3 695 300 705.7C266.7 716.3 233.3 705.7 200 689.7C166.7 673.7 133.3 652.3 100 639C66.7 625.7 33.3 620.3 16.7 617.7L0 615Z" fill="#336a8f"></path></svg>