<svg id="visual" viewBox="0 0 600 600" width="600" height="600" xmlns="http://www.w3.org/2000/svg" xmlns:xlink="http://www.w3.org/1999/xlink" version="1.1"><path d="M0 392L14.3 402.7C28.7 413.3 57.3 434.7 85.8 451.2C114.3 467.7 142.7 479.3 171.2 477.5C199.7 475.7 228.3 460.3 257 446.5C285.7 432.7 314.3 420.3 343 433.2C371.7 446 400.3 484 428.8 492.8C457.3 501.7 485.7 481.3 514.2 477.2C542.7 473 571.3 485 585.7 491L600 497L600 601L585.7 601C571.3 601 542.7 601 514.2 601C485.7 601 457.3 601 428.8 601C400.3 601 371.7 601 343 601C314.3 601 285.7 601 257 601C228.3 601 199.7 601 171.2 601C142.7 601 114.3 601 85.8 601C57.3 601 28.7 601 14.3 601L0 601Z" fill="#0066FF" stroke-linecap="round" stroke-linejoin="miter"></path></svg>